<svg width="36" height="36" viewBox="0 0 36 36" fill="none" xmlns="http://www.w3.org/2000/svg">
<rect width="36" height="36" rx="5.66929" fill="#2DB400"/>
<g style="mix-blend-mode:overlay" filter="url(#filter0_i_27_3)">
<rect width="36" height="36" rx="5.66929" fill="white" fill-opacity="0.01"/>
</g>
<rect x="5.29395" y="1.58826" width="25.4118" height="28.0588" rx="5.67" fill="url(#paint0_linear_27_3)" fill-opacity="0.2"/>
<rect x="5.79395" y="2.08826" width="24.4118" height="27.0588" rx="5.17" stroke="url(#paint1_linear_27_3)" stroke-opacity="0.4"/>
<path opacity="0.5" d="M22.7544 29.647V35.9833H32.9822C34.6398 35.9833 35.9836 34.6395 35.9836 32.9819V22.7542H30.7061V26.6453C30.7061 28.3031 29.3622 29.647 27.7043 29.647H22.7544Z" fill="url(#paint2_linear_27_3)"/>
<rect opacity="0.5" x="13.2354" y="29.647" width="9.52941" height="6.35294" fill="white" fill-opacity="0.2"/>
<path opacity="0.5" d="M5.29412 22.7542H0V32.9819C0 34.6395 1.34377 35.9833 3.00139 35.9833H13.2292V29.647H8.29588C6.63805 29.647 5.29412 28.3031 5.29412 26.6453V22.7542Z" fill="url(#paint3_linear_27_3)"/>
<rect opacity="0.5" y="13.2292" width="5.29167" height="9.525" fill="white" fill-opacity="0.7"/>
<path opacity="0.5" d="M32.9822 0H22.7544V1.58824H27.7043C29.3622 1.58824 30.7061 2.93217 30.7061 4.59V13.2292H35.9836V3.00139C35.9836 1.34377 34.6398 0 32.9822 0Z" fill="url(#paint4_linear_27_3)"/>
<rect opacity="0.5" x="13.229" width="9.525" height="1.5875" fill="white" fill-opacity="0.15"/>
<path opacity="0.5" d="M3.00139 0C1.34377 0 0 1.34377 0 3.00139V13.2292H5.29412V4.59C5.29412 2.93217 6.63805 1.58824 8.29588 1.58824H13.2292V0H3.00139Z" fill="url(#paint5_linear_27_3)"/>
<mask id="mask0_27_3" style="mask-type:alpha" maskUnits="userSpaceOnUse" x="26" y="0" width="10" height="36">
<rect x="35.9834" y="35.9833" width="8.99584" height="35.9833" rx="4.49792" transform="rotate(-180 35.9834 35.9833)" fill="#343436"/>
</mask>
<g mask="url(#mask0_27_3)">
<g style="mix-blend-mode:overlay" opacity="0.2" filter="url(#filter1_d_27_3)">
<path d="M47.0957 29.9374C47.0957 32.3997 45.0996 34.3958 42.6372 34.3958V34.3958C37.2088 34.3958 32.8082 29.9952 32.8082 24.5668L32.8082 10.8874C32.8082 5.45895 37.2088 1.05835 42.6372 1.05835V1.05835C45.0996 1.05835 47.0957 3.05447 47.0957 5.51681L47.0957 29.9374Z" fill="black" fill-opacity="0.01"/>
</g>
</g>
<mask id="mask1_27_3" style="mask-type:alpha" maskUnits="userSpaceOnUse" x="0" y="0" width="9" height="36">
<rect width="8.99583" height="35.9833" rx="4.49792" fill="#343436"/>
</mask>
<g mask="url(#mask1_27_3)">
<g style="mix-blend-mode:overlay" opacity="0.2" filter="url(#filter2_d_27_3)">
<path d="M-11.1123 8.31581C-11.1123 5.18436 -8.57376 2.64581 -5.4423 2.64581H-3.55314C-0.421687 2.64581 2.11686 5.18436 2.11686 8.31581V26.8824C2.11686 31.9087 -1.95778 35.9833 -6.98411 35.9833V35.9833C-9.26405 35.9833 -11.1123 34.1351 -11.1123 31.8551V8.31581Z" fill="black" fill-opacity="0.01"/>
</g>
</g>
<path fill-rule="evenodd" clip-rule="evenodd" d="M29.9446 10.0556C29.9446 6.37369 26.9598 3.38892 23.2779 3.38892L12.7223 3.38892C9.04043 3.38892 6.05566 6.37369 6.05566 10.0556L6.05566 20.6111C6.05567 24.293 9.04043 27.2778 12.7223 27.2778L23.2779 27.2778C26.9598 27.2778 29.9446 24.293 29.9446 20.6111L29.9446 10.0556ZM25.2223 16.1667C24.7621 16.1667 24.389 16.5398 24.389 17V19.2222C24.389 20.603 23.2697 21.7222 21.889 21.7222H14.1112C12.7305 21.7222 11.6112 20.603 11.6112 19.2222L11.6112 17C11.6112 16.5398 11.2381 16.1667 10.7779 16.1667C10.3177 16.1667 9.94456 16.5398 9.94456 17V19.2222C9.94456 21.5234 11.81 23.3889 14.1112 23.3889L21.889 23.3889C24.1902 23.3889 26.0557 21.5234 26.0557 19.2222V17C26.0557 16.5398 25.6826 16.1667 25.2223 16.1667ZM17.4295 18.7185C17.7502 19.0198 18.25 19.0198 18.5707 18.7185L21.3485 16.1088C21.6839 15.7937 21.7004 15.2663 21.3852 14.9309C21.0701 14.5955 20.5427 14.579 20.2073 14.8941L18.8334 16.1848L18.8334 8.11114C18.8334 7.6509 18.4603 7.27781 18.0001 7.27781C17.5399 7.27781 17.1668 7.6509 17.1668 8.11114L17.1668 16.1848L15.7929 14.8941C15.4575 14.579 14.9301 14.5955 14.615 14.9309C14.2999 15.2663 14.3163 15.7937 14.6517 16.1088L17.4295 18.7185Z" fill="white"/>
<defs>
<filter id="filter0_i_27_3" x="-1" y="0" width="37" height="36" filterUnits="userSpaceOnUse" color-interpolation-filters="sRGB">
<feFlood flood-opacity="0" result="BackgroundImageFix"/>
<feBlend mode="normal" in="SourceGraphic" in2="BackgroundImageFix" result="shape"/>
<feColorMatrix in="SourceAlpha" type="matrix" values="0 0 0 0 0 0 0 0 0 0 0 0 0 0 0 0 0 0 127 0" result="hardAlpha"/>
<feOffset dx="-1"/>
<feGaussianBlur stdDeviation="5"/>
<feComposite in2="hardAlpha" operator="arithmetic" k2="-1" k3="1"/>
<feColorMatrix type="matrix" values="0 0 0 0 0 0 0 0 0 0 0 0 0 0 0 0 0 0 0.6 0"/>
<feBlend mode="normal" in2="shape" result="effect1_innerShadow_27_3"/>
</filter>
<filter id="filter1_d_27_3" x="29.8081" y="-1.94165" width="20.2876" height="39.3375" filterUnits="userSpaceOnUse" color-interpolation-filters="sRGB">
<feFlood flood-opacity="0" result="BackgroundImageFix"/>
<feColorMatrix in="SourceAlpha" type="matrix" values="0 0 0 0 0 0 0 0 0 0 0 0 0 0 0 0 0 0 127 0" result="hardAlpha"/>
<feMorphology radius="1" operator="dilate" in="SourceAlpha" result="effect1_dropShadow_27_3"/>
<feOffset/>
<feGaussianBlur stdDeviation="1"/>
<feColorMatrix type="matrix" values="0 0 0 0 0 0 0 0 0 0 0 0 0 0 0 0 0 0 1 0"/>
<feBlend mode="normal" in2="BackgroundImageFix" result="effect1_dropShadow_27_3"/>
<feBlend mode="normal" in="SourceGraphic" in2="effect1_dropShadow_27_3" result="shape"/>
</filter>
<filter id="filter2_d_27_3" x="-14.1123" y="-0.354187" width="19.229" height="39.3375" filterUnits="userSpaceOnUse" color-interpolation-filters="sRGB">
<feFlood flood-opacity="0" result="BackgroundImageFix"/>
<feColorMatrix in="SourceAlpha" type="matrix" values="0 0 0 0 0 0 0 0 0 0 0 0 0 0 0 0 0 0 127 0" result="hardAlpha"/>
<feMorphology radius="1" operator="dilate" in="SourceAlpha" result="effect1_dropShadow_27_3"/>
<feOffset/>
<feGaussianBlur stdDeviation="1"/>
<feColorMatrix type="matrix" values="0 0 0 0 0 0 0 0 0 0 0 0 0 0 0 0 0 0 1 0"/>
<feBlend mode="normal" in2="BackgroundImageFix" result="effect1_dropShadow_27_3"/>
<feBlend mode="normal" in="SourceGraphic" in2="effect1_dropShadow_27_3" result="shape"/>
</filter>
<linearGradient id="paint0_linear_27_3" x1="5.29395" y1="15.3626" x2="30.7057" y2="15.3626" gradientUnits="userSpaceOnUse">
<stop stop-opacity="0.4"/>
<stop offset="0.0625" stop-color="#C5C5C5" stop-opacity="0.44375"/>
<stop offset="0.5" stop-color="white" stop-opacity="0.75"/>
<stop offset="1" stop-color="white"/>
</linearGradient>
<linearGradient id="paint1_linear_27_3" x1="5.29395" y1="15.3626" x2="30.7057" y2="15.3626" gradientUnits="userSpaceOnUse">
<stop stop-color="white" stop-opacity="0.56"/>
<stop offset="0.51098" stop-color="white" stop-opacity="0"/>
<stop offset="1" stop-color="white" stop-opacity="0.14"/>
</linearGradient>
<linearGradient id="paint2_linear_27_3" x1="29.1044" y1="33.3375" x2="34.1315" y2="29.1042" gradientUnits="userSpaceOnUse">
<stop stop-color="white" stop-opacity="0.2"/>
<stop offset="0.5" stop-color="white" stop-opacity="0.3"/>
<stop offset="1" stop-color="white" stop-opacity="0"/>
</linearGradient>
<linearGradient id="paint3_linear_27_3" x1="6.61458" y1="33.3375" x2="1.32292" y2="29.3687" gradientUnits="userSpaceOnUse">
<stop stop-color="white" stop-opacity="0.2"/>
<stop offset="0.5" stop-color="white" stop-opacity="0.5"/>
<stop offset="1" stop-color="white" stop-opacity="0.7"/>
</linearGradient>
<linearGradient id="paint4_linear_27_3" x1="29.1044" y1="1.05833" x2="31.7502" y2="6.87917" gradientUnits="userSpaceOnUse">
<stop stop-color="white" stop-opacity="0.15"/>
<stop offset="0.505208" stop-color="white" stop-opacity="0.5"/>
<stop offset="1" stop-color="white" stop-opacity="0"/>
</linearGradient>
<linearGradient id="paint5_linear_27_3" x1="6.87917" y1="1.05833" x2="4.23333" y2="6.87917" gradientUnits="userSpaceOnUse">
<stop stop-color="white" stop-opacity="0.15"/>
<stop offset="0.494792" stop-color="white" stop-opacity="0.5"/>
<stop offset="1" stop-color="white" stop-opacity="0.7"/>
</linearGradient>
</defs>
</svg>
